<svg width="176" height="32" viewBox="0 0 176 32" fill="none" xmlns="http://www.w3.org/2000/svg">
<path d="M64 14.8855V31.4599H68.7189V16.0203C68.7189 14.7163 69.7762 13.659 71.0802 13.659H75.9577V9H69.889C66.6361 9 64 11.6326 64 14.8855Z" fill="#114455"/>
<path d="M86.9991 26.4767L81.0326 9H76L83.4361 29.2185C83.9824 30.7022 85.3956 31.689 86.978 31.689C88.5568 31.689 89.97 30.7057 90.5163 29.2256L97.9982 9H92.9198L86.9991 26.4767Z" fill="#114455"/>
<path d="M48.0555 8.62744C41.4018 8.62744 37 13.66 37 20.3138C37 26.9217 41.4053 32.0001 48.0555 32.0001C54.7057 32.0001 59.111 26.9217 59.111 20.3138C59.111 13.6636 54.7057 8.62744 48.0555 8.62744ZM48.0555 27.5948C44.4608 27.5948 41.7189 24.4935 41.7189 20.3138C41.7189 16.0882 44.4608 13.0327 48.0555 13.0327C51.696 13.0327 54.3921 16.0882 54.3921 20.3138C54.3921 24.4935 51.696 27.5948 48.0555 27.5948Z" fill="#114455"/>
<path d="M99.5242 4.8141H99.563C100.892 4.8141 101.97 3.73568 101.97 2.40705C101.97 1.07841 100.892 0 99.563 0H99.5242C98.1956 0 97.1172 1.07841 97.1172 2.40705C97.1172 3.73568 98.1956 4.8141 99.5242 4.8141Z" fill="#114455"/>
<path d="M173.061 26.8193H173.022C171.693 26.8193 170.615 27.8978 170.615 29.2264C170.615 30.555 171.693 31.6334 173.022 31.6334H173.061C174.389 31.6334 175.468 30.555 175.468 29.2264C175.468 27.8978 174.389 26.8193 173.061 26.8193Z" fill="#114455"/>
<path d="M23.5031 9C20.6414 9 18.1357 10.1137 16.4018 11.8828C14.7137 10.0678 12.2608 9 9.57181 9C4.17269 9 0 12.9401 0 17.8529V31.9216H4.71894V18.4872C4.71894 16.5771 5.64229 13.3172 9.57181 13.3172C12.1797 13.3172 13.8855 15.2485 13.8855 18.4872V31.9251H13.9313H18.6502H18.696V17.8564C18.696 17.8282 18.6925 17.8035 18.6925 17.7753C18.9075 15.8652 20.0282 13.3172 23.5031 13.3172C26.111 13.3172 27.8167 15.2485 27.8167 18.4872V31.9251H32.6273V17.8564C32.6273 12.5947 28.4476 9 23.5031 9Z" fill="#114455"/>
<path d="M157.503 9C154.641 9 152.136 10.1137 150.402 11.8828C148.714 10.0678 146.261 9 143.572 9C138.173 9 134 12.9401 134 17.8529V31.9216H138.719V18.4872C138.719 16.5771 139.642 13.3172 143.572 13.3172C146.18 13.3172 147.885 15.2485 147.885 18.4872V31.9251H147.931H152.65H152.696V17.8564C152.696 17.8282 152.693 17.8035 152.693 17.7753C152.907 15.8652 154.028 13.3172 157.503 13.3172C160.111 13.3172 161.817 15.2485 161.817 18.4872V31.9251H166.627V17.8564C166.627 12.5947 162.448 9 157.503 9Z" fill="#114455"/>
<path d="M119.75 8.58154C113.294 8.58154 109.167 13.5472 109.146 20.3525H109.142V23.5454C109.142 24.3666 108.85 25.1666 108.321 25.7974C107.655 26.5904 106.679 27.045 105.643 27.0485H105.639C104.603 27.0485 103.627 26.5939 102.957 25.7974C102.425 25.1666 102.136 24.3666 102.136 23.5419V16.9798H102.132V9.11018H97.3535V23.6476H97.3606C97.3852 25.5578 98.0725 27.4115 99.3095 28.8776C100.888 30.7525 103.197 31.8238 105.643 31.8238H105.65C108.102 31.8203 110.411 30.7419 111.986 28.867C112.021 28.8247 112.053 28.7754 112.088 28.7296C113.988 30.7771 116.719 31.9507 120.021 31.9507C123.887 31.9507 127.302 30.1956 128.874 27.4573L125.28 25.2547C124.335 26.6467 122.672 27.8168 120.201 27.8168C116.606 27.8168 114.27 25.6141 113.773 21.7939H129.505C130.358 14.3789 126.897 8.58154 119.75 8.58154ZM113.815 18.2908C114.4 14.8758 116.511 12.6732 119.792 12.6732C123.479 12.6732 125.23 15.5489 125.23 18.2908H113.815Z" fill="#114455"/>
</svg>
